<svg width="36" height="36" viewBox="0 0 36 36" fill="none" xmlns="http://www.w3.org/2000/svg">
<path fill-rule="evenodd" clip-rule="evenodd" d="M25.667 23.1103L35.3061 32.7494C35.6449 33.0885 35.8352 33.5482 35.835 34.0275C35.8348 34.5068 35.6443 34.9664 35.3052 35.3052C34.9662 35.644 34.5064 35.8343 34.0271 35.8341C33.5478 35.8339 33.0882 35.6434 32.7494 35.3043L23.1103 25.6652C20.2287 27.897 16.6052 28.9473 12.9768 28.6023C9.34841 28.2574 5.98771 26.5431 3.57836 23.8083C1.16902 21.0735 -0.107975 17.5235 0.00716008 13.8806C0.122295 10.2376 1.62091 6.77537 4.19814 4.19814C6.77537 1.62091 10.2376 0.122295 13.8806 0.00716008C17.5235 -0.107975 21.0735 1.16902 23.8083 3.57836C26.5431 5.98771 28.2574 9.34842 28.6023 12.9768C28.9473 16.6052 27.897 20.2287 25.6652 23.1103H25.667ZM14.3347 25.0829C17.1857 25.0829 19.92 23.9503 21.9361 21.9343C23.9521 19.9183 25.0847 17.184 25.0847 14.3329C25.0847 11.4818 23.9521 8.74749 21.9361 6.73148C19.92 4.71546 17.1857 3.58288 14.3347 3.58288C11.4836 3.58288 8.74929 4.71546 6.73327 6.73148C4.71725 8.74749 3.58467 11.4818 3.58467 14.3329C3.58467 17.184 4.71725 19.9183 6.73327 21.9343C8.74929 23.9503 11.4836 25.0829 14.3347 25.0829Z" fill="#FFFFFF"/>
</svg>
